# xmcd CD database file
#
# Track frame offsets:
#	150
#	27062
#	46975
#	68393
#	99766
#	112126
#	139611
#	167984
#	191079
#	206307
#	232354
#	250963
#	272139
#	293260
#	307745
#
# Disc length: 4207 seconds
#
# Revision: 1
# Processed by: cddbd v1.5.1PL0 Copyright (c) Steve Scherf et al.
# Submitted via: CDex 1.51
#
DISCID=ca106d0f
DTITLE=Various Artist - Los Bravos del Ritmo - Vol. 2
DYEAR=1900
DGENRE=Salsa
TTITLE0=La Casino/Descarga en el Bronx
TTITLE1=Pachapo/No le digan
TTITLE2=Ralph Robles/Jezebel
TTITLE3=Raul Marrero/Quien Dijo Miedo
TTITLE4=Perez Prado/Mambo del mercado de la Merced
TTITLE5=Roberto Roena/Coro Miyare
TTITLE6=El Combo de Ayer/El Viento me Da
TTITLE7=Charanga America/Julio el Gitano
TTITLE8=Joe Cuba/So What
TTITLE9=Charlie Palmieri/Muneca
TTITLE10=Chocolate/Mi Guajira Inspiracion
TTITLE11=Larry Harlow/Un Tipo Liberado
TTITLE12=Ralph Robles/Vals Candy
TTITLE13=Mongo Santamaria/Barandanga
TTITLE14=Nelson Loco/A Mil
EXTD=
EXTT0=
EXTT1=
EXTT2=
EXTT3=
EXTT4=
EXTT5=
EXTT6=
EXTT7=
EXTT8=
EXTT9=
EXTT10=
EXTT11=
EXTT12=
EXTT13=
EXTT14=
PLAYORDER=
